<svg width="291" height="278" viewBox="0 0 291 278" fill="none" xmlns="http://www.w3.org/2000/svg">
<g filter="url(#filter0_d_343_558)">
<path d="M160.03 98.9162C160.007 98.9847 159.987 99.0572 159.965 99.1258C158.554 99.1389 157.149 99.1532 155.737 99.1662C155.72 99.0906 155.698 99.0177 155.668 98.9503L160.03 98.9162Z" fill="#252525"/>
<path d="M28.2316 152.37C28.2739 153.42 28.7485 154.35 29.1021 155.301C29.3821 156.062 29.3205 156.703 28.9232 157.369C27.5384 159.694 25.6644 161.152 22.8038 161.04C21.8502 161.003 21.1513 160.365 20.2723 160.199C18.0032 157.677 17.6154 154.438 16.9888 151.319C16.0437 146.621 15.6015 141.853 15.054 137.093C14.7457 134.421 14.396 131.748 13.7539 129.127C13.4468 127.875 13.0976 126.645 12.3807 125.562C12.2038 125.293 12.1014 125.071 12.2729 124.745C13.133 123.122 14.2091 121.723 15.9548 120.972C17.3833 120.354 18.7778 120.417 20.1536 121.133C21.5038 121.838 22.5967 122.846 23.5921 123.975C25.4681 126.103 26.9196 128.521 28.3975 130.927C28.6814 131.392 28.8921 131.92 29.3952 132.337C29.8092 131.343 29.8862 130.32 30.0815 129.332C30.618 126.609 31.145 123.88 31.5007 121.125C31.6282 120.149 31.7793 119.157 31.5202 118.199C31.4214 117.84 31.5145 117.646 31.6863 117.396C34.0493 114.011 39.0386 114.137 41.207 117.638C42.2441 119.314 42.6546 121.193 42.9005 123.105C43.4803 127.642 44.0109 132.184 44.58 136.722C44.6705 137.422 44.6286 138.168 45.0721 138.785C45.163 141.222 45.7523 143.575 46.2885 145.935C46.6085 147.349 47.0082 148.742 47.5363 150.093C47.8336 150.853 47.7279 151.491 47.3022 152.141C46.1642 153.87 44.76 155.152 42.6049 155.562C40.7607 155.913 38.3566 154.567 37.5988 153.207C36.6381 151.49 36.3276 149.611 35.9332 147.739C35.812 147.154 35.7254 146.569 35.6215 145.984C35.609 145.488 35.5965 144.992 35.584 144.496C35.7836 143.758 35.3054 143.141 35.2484 142.447C35.13 143.176 34.9675 143.9 35.2731 144.614C35.3195 145.074 35.3687 145.539 35.419 145.997C35.4162 146.169 35.3578 146.362 35.4197 146.501C35.8872 147.589 35.1841 148.128 34.4325 148.648C33.3984 149.359 32.2663 149.805 31.0057 149.883C28.5952 149.139 27.5329 147.118 26.4766 145.063C26.6743 146.973 27.0837 148.8 27.5581 150.61C27.7144 151.211 27.7151 151.892 28.2249 152.369L28.2316 152.37ZM30.0724 135.091C29.9782 135.116 29.8868 135.145 29.7926 135.17C29.0454 133.984 28.2863 132.807 27.5442 131.612C26.0364 129.18 24.5837 126.71 22.6593 124.564C21.797 123.6 20.8531 122.745 19.7089 122.125C18.7634 121.613 17.7598 121.487 16.7388 121.832C15.2779 122.32 14.3253 123.391 13.548 124.663C13.3627 124.969 13.4549 125.21 13.6081 125.496C14.5404 127.256 14.9175 129.188 15.2732 131.123C16.1757 136.003 16.4701 140.963 17.1783 145.868C17.6843 149.377 18.2328 152.879 19.2648 156.284C19.4896 157.025 19.7897 157.731 20.2376 158.362C21.2543 159.782 22.8875 160.312 24.5406 159.772C26.0877 159.265 27.1498 158.199 27.9366 156.815C28.1625 156.416 28.1874 156.04 28.0161 155.603C26.2861 151.066 25.4731 146.305 24.6482 141.552C24.429 140.29 24.2709 139.016 24.0876 137.747C24.0321 137.357 23.9597 136.985 24.5338 136.883C25.1079 136.78 25.1598 137.19 25.2693 137.548C25.3843 137.914 25.4662 138.291 25.5811 138.656C26.0162 140.084 26.4289 141.521 26.9077 142.935C27.3995 144.393 27.9789 145.825 28.8971 147.079C30.2187 148.884 31.5276 149.119 33.4224 147.993C34.1175 147.577 34.4356 147.125 34.3452 146.249C33.9736 142.664 34.2238 139.078 34.4741 135.493C34.5136 134.937 34.5358 134.381 34.582 133.826C34.6065 133.492 34.8603 133.444 35.131 133.436C35.4056 133.426 35.6535 133.47 35.718 133.789C35.7574 133.996 35.7743 134.213 35.7884 134.426C35.9082 136.133 36.004 137.839 36.1451 139.542C36.3946 142.567 36.6122 145.596 37.2184 148.577C37.4927 149.917 37.7486 151.264 38.4587 152.464C39.6128 154.416 41.7354 155.05 43.7692 154.055C44.7907 153.552 45.5781 152.789 46.2052 151.84C46.56 151.298 46.618 150.794 46.3983 150.161C44.6995 145.292 43.9516 140.221 43.282 135.136C42.7624 131.196 42.3491 127.241 41.8468 123.302C41.6537 121.776 41.3435 120.267 40.6369 118.871C38.9878 115.616 36.3202 115.252 33.3953 117.205C32.8747 117.551 32.5925 117.995 32.6699 118.71C32.7537 119.467 32.698 120.252 32.5949 121.011C31.9623 125.745 30.9277 130.407 30.0645 135.097L30.0724 135.091Z" fill="#3E75BD"/>
<path d="M145.526 106.898C145.748 108.08 145.72 109.274 145.734 110.468C145.782 115.981 145.742 121.504 145.908 127.018C146.01 130.503 146.315 133.994 147.078 137.417C147.218 138.035 147.103 138.467 146.778 138.959C145.364 141.099 142.741 142.048 140.518 141.079C139.054 140.437 138.065 139.267 137.492 137.76C136.989 136.428 136.85 135.022 136.703 133.628C136.456 131.253 136.339 128.864 136.361 126.471C136.373 125.329 135.722 124.928 134.649 125.332C134.346 125.444 134.289 125.673 134.29 125.935C134.31 126.961 134.261 127.999 134.382 129.012C134.721 131.886 134.966 134.779 135.707 137.583C135.901 138.322 135.687 138.83 135.297 139.338C133.808 141.254 131.825 142.195 129.448 141.692C127.23 141.224 125.847 139.65 125.181 137.498C124.686 135.902 124.538 134.238 124.381 132.587C123.94 127.988 124.065 123.369 124.007 118.755C123.993 117.426 124.234 116.118 124.188 114.794C124.117 112.578 123.987 110.362 123.881 108.147C123.743 106.699 123.555 105.264 122.942 103.926C122.812 103.641 122.757 103.386 122.915 103.082C123.912 101.169 126.761 99.8797 128.838 100.44C130.134 100.79 131.074 101.647 131.859 102.694C132.773 103.916 133.242 105.325 133.544 106.804C133.577 106.969 133.638 107.132 133.684 107.299C134.028 109.753 133.923 112.221 133.968 114.685C133.982 115.409 133.978 116.134 133.991 116.858C133.996 117.107 133.959 117.45 134.244 117.521C134.866 117.672 135.53 117.672 136.134 117.478C136.72 117.285 136.535 116.693 136.533 116.254C136.528 113.486 136.499 110.718 136.47 107.95C136.466 107.659 136.532 107.35 136.326 107.089C136.298 105.799 136.077 104.544 135.582 103.359C135.402 102.933 135.474 102.642 135.735 102.318C136.161 101.786 136.614 101.275 137.157 100.86C139.106 99.3844 141.302 99.5444 143.024 101.292C144.134 102.418 144.761 103.799 145.169 105.298C145.313 105.831 145.41 106.38 145.529 106.919L145.526 106.898ZM132.925 118.907C132.922 118.182 132.916 117.552 132.909 116.922C132.895 114.015 132.891 111.106 132.64 108.206C132.476 106.301 131.983 104.498 130.717 103C128.875 100.82 126.299 100.813 124.419 102.951C124.147 103.258 123.98 103.54 124.13 103.981C125.034 106.606 125.081 109.35 125.179 112.082C125.306 115.503 125.138 118.92 125.111 122.338C125.077 126.359 125.231 130.372 125.686 134.369C125.828 135.637 126.014 136.91 126.608 138.079C128.224 141.269 132.154 141.625 134.302 138.772C134.582 138.4 134.685 138.052 134.57 137.586C133.974 135.174 133.659 132.717 133.418 130.25C133.255 128.55 133.174 126.84 133.05 125.136C133.014 124.639 133.132 124.322 133.713 124.279C134.651 124.21 135.583 124.074 136.52 124.012C137.394 123.952 137.42 123.981 137.418 124.91C137.422 127.39 137.529 129.868 137.708 132.338C137.829 133.997 137.92 135.671 138.496 137.257C138.983 138.607 139.839 139.629 141.211 140.148C142.607 140.674 143.786 140.195 144.914 139.365C145.959 138.593 146.176 137.62 145.746 136.435C145.688 136.276 145.698 136.099 145.669 135.931C144.661 129.616 144.643 123.247 144.657 116.874C144.663 113.712 144.778 110.544 144.448 107.388C144.254 105.533 143.753 103.777 142.511 102.321C140.981 100.52 139.117 100.44 137.385 102.05C136.844 102.552 136.521 103.031 136.878 103.826C137.119 104.355 137.16 104.984 137.253 105.571C137.692 108.328 137.61 111.115 137.625 113.887C137.629 115.211 137.571 116.537 137.571 117.864C137.572 118.351 137.39 118.577 136.905 118.564C135.628 118.525 134.364 118.699 132.927 118.894L132.925 118.907Z" fill="#3E75BD"/>
<path d="M84.6932 117.755C84.7306 121.257 85.064 124.746 85.3745 128.227C85.7927 132.935 86.4068 137.63 87.7569 142.186C87.9215 142.74 87.8324 143.167 87.5411 143.623C86.3846 145.418 84.8058 146.535 82.6469 146.713C80.9541 146.852 79.7091 145.903 78.5922 144.836C76.9436 143.26 75.7485 141.325 74.6366 139.35C73.9055 138.053 73.2009 136.744 72.3647 135.222C72.2533 136.204 72.5176 136.917 72.6321 137.618C73.0217 139.928 73.5137 142.225 74.2603 144.45C74.4277 144.949 74.361 145.366 74.113 145.792C73.0345 147.673 71.4861 148.951 69.3231 149.308C67.4486 149.615 65.1079 148.77 63.9157 146.252C63.1213 144.571 62.8561 142.749 62.5752 140.938C61.9755 137.061 61.5063 133.168 61.4338 129.239C61.4303 129.024 61.4056 128.813 61.2456 128.643C61.4578 127.579 61.2272 126.519 61.1726 125.459C61.0039 122.173 60.7714 118.896 60.1022 115.665C59.894 114.655 59.6302 113.665 59.1111 112.772C58.8933 112.402 58.8425 112.103 59.0928 111.723C59.7518 110.71 60.5106 109.797 61.5391 109.136C63.3031 108.008 64.8347 108.057 66.5189 109.315C67.8707 110.324 68.8996 111.635 69.867 113.001C71.4478 115.235 72.8075 117.607 74.129 119.999C74.3279 120.358 74.5453 120.711 74.8463 121.041C75.0101 119.899 74.7849 118.788 74.7253 117.679C74.6193 115.758 74.3683 113.855 73.9085 111.981C73.7853 111.487 73.6967 110.932 73.4064 110.542C72.6757 109.557 73.1416 108.855 73.7636 108.091C76.5174 104.703 80.4692 104.973 82.7285 108.722C83.9606 110.76 84.2005 113.058 84.4325 115.361C84.5119 116.162 84.3903 116.987 84.6987 117.763L84.6932 117.755ZM70.2501 128.835C70.6792 128.928 70.7307 129.321 70.8772 129.606C71.5441 130.894 72.1766 132.201 72.8316 133.498C74.1624 136.13 75.4366 138.79 77.1008 141.236C77.9454 142.476 78.8542 143.666 80.0388 144.604C81.7289 145.946 83.1802 145.981 84.9619 144.752C85.4967 144.384 85.9306 143.922 86.3247 143.411C86.6696 142.965 86.728 142.536 86.5701 141.983C85.2216 137.321 84.6493 132.526 84.2568 127.711C83.9251 123.705 83.6907 119.695 83.3697 115.688C83.2435 114.115 83.1091 112.53 82.5921 111.019C82.1408 109.703 81.4897 108.52 80.3744 107.639C79.0783 106.609 77.6227 106.5 76.2004 107.337C75.642 107.663 75.177 108.106 74.7434 108.585C74.2772 109.094 74.0308 109.589 74.4708 110.285C74.7351 110.705 74.8272 111.239 74.9504 111.734C75.6421 114.484 75.803 117.307 75.9864 120.12C76.1035 121.881 76.1393 123.652 76.213 125.444C75.7441 125.361 75.6949 125.014 75.5575 124.775C74.83 123.518 74.1249 122.25 73.4278 120.976C72.0516 118.464 70.6399 115.977 68.9898 113.627C68.2287 112.539 67.4153 111.494 66.4067 110.615C64.7545 109.176 63.5539 108.719 61.2456 110.739C60.9918 110.963 60.7928 111.249 60.565 111.503C60.1913 111.917 60.0521 112.313 60.3637 112.876C60.7769 113.626 60.952 114.472 61.1323 115.309C61.7704 118.285 61.9987 121.312 62.1923 124.341C62.5244 129.674 62.7475 135.018 63.5951 140.307C63.8992 142.201 64.0962 144.136 64.9907 145.876C66.1711 148.167 68.6286 148.86 70.8681 147.581C71.6599 147.127 72.2889 146.499 72.8178 145.753C73.1399 145.299 73.218 144.857 73.0589 144.31C71.5733 139.251 70.8518 134.05 70.2537 128.815L70.2501 128.835Z" fill="#3E75BD"/>
<path d="M168.911 108.388C168.523 109.78 168.246 111.213 167.349 112.415C166.987 112.904 166.585 113.32 166.057 113.63C165.401 114.019 164.891 114.07 164.247 113.476C163.219 112.528 161.905 112.092 160.507 111.99C159.698 111.933 159.645 112.017 159.604 112.839C159.54 114.116 159.735 115.401 159.451 116.673C159.331 117.215 159.614 117.469 160.171 117.426C160.988 117.359 161.784 117.448 162.584 117.627C163.975 117.946 164.888 118.763 165.167 120.153C165.541 122.022 165.423 123.807 164.004 125.287C163.607 125.7 163.236 125.9 162.69 125.455C162.411 125.233 161.984 125.151 161.61 125.095C159.741 124.806 159.482 125.082 159.461 126.974C159.441 128.691 159.811 130.369 159.795 132.082C159.786 132.799 159.964 132.869 160.675 132.594C162.158 132.02 163.605 131.378 164.573 130.025C164.82 129.682 165.053 129.772 165.337 129.919C165.651 130.081 165.897 130.308 166.1 130.589C167.081 131.933 167.672 133.44 167.734 135.098C167.781 136.281 167.908 137.46 167.42 138.635C166.57 140.674 164.844 141.236 162.92 141.49C160.501 141.809 158.07 141.59 155.649 141.511C153.002 141.426 150.827 139.467 150.058 136.8C149.761 135.763 149.641 134.685 149.583 133.645C149.43 130.793 149.082 127.938 149.236 125.071C149.517 119.867 149.717 114.667 149.627 109.453C149.611 108.6 149.569 107.743 149.541 106.889C149.599 105.638 149.34 104.429 148.869 103.285C148.624 102.693 148.778 102.35 149.175 101.944C150.543 100.552 152.279 99.9125 154.118 99.4775C154.655 99.3479 155.196 99.257 155.741 99.146C157.152 99.133 158.564 99.1199 159.968 99.1056C161.6 99.3731 163.226 99.6674 164.751 100.362C165.138 100.537 165.525 100.713 165.896 100.916C168.18 102.183 169.129 104.178 169.027 106.733C169.006 107.282 168.954 107.829 168.916 108.378L168.911 108.388ZM158.545 110.721C160.754 110.707 162.779 111.034 164.569 112.3C165.358 112.857 165.494 112.85 166.134 112.138C166.362 111.885 166.57 111.604 166.729 111.311C167.599 109.693 167.959 107.95 167.932 106.125C167.914 104.647 167.407 103.37 166.195 102.433C165.65 102.016 165.057 101.68 164.428 101.41C161.479 100.132 158.404 99.9067 155.261 100.374C153.821 100.589 152.422 100.981 151.163 101.756C149.891 102.54 149.889 102.554 150.25 103.968C150.29 104.134 150.315 104.304 150.348 104.469C150.976 107.857 150.907 111.275 150.763 114.692C150.522 120.373 150.268 126.051 150.546 131.733C150.617 133.227 150.744 134.717 151.072 136.184C151.662 138.806 153.521 140.306 155.882 140.391C157.419 140.449 158.953 140.502 160.494 140.522C161.648 140.537 162.802 140.457 163.93 140.173C165.647 139.741 166.541 138.704 166.709 136.931C166.874 135.178 166.505 133.534 165.676 131.989C165.526 131.707 165.432 131.338 164.994 131.298C163.317 132.888 161.24 133.678 159.087 134.309C158.845 133.863 158.82 133.475 158.791 133.096C158.611 130.927 158.407 128.756 158.389 126.574C158.37 124.181 158.581 123.945 161.004 123.934C161.512 123.931 162.022 123.997 162.523 124.151C163.492 124.454 163.563 124.421 163.899 123.517C164.017 123.199 164.094 122.864 164.157 122.526C164.682 119.787 163.464 118.398 160.702 118.604C159.96 118.659 159.217 118.797 158.397 118.908C158.377 116.145 158.397 113.472 158.548 110.718L158.545 110.721Z" fill="#3E75BD"/>
<path d="M107.723 111.087C108.48 112.941 109.323 114.758 109.744 116.735C110.474 120.145 110.612 123.572 110.251 127.041C109.997 129.473 109.506 131.841 108.735 134.154C107.946 136.525 106.804 138.727 105.205 140.645C103.162 143.095 100.494 144.399 97.2961 144.552C96.4497 144.593 95.5855 144.675 94.7451 144.447C92.0429 143.731 90.747 141.761 90.309 139.197C89.7191 135.753 89.3089 132.289 89.1193 128.788C88.9149 125.039 88.6304 121.294 88.5513 117.539C88.5411 117.206 88.609 116.841 88.2792 116.597C88.5285 115.577 88.3108 114.561 88.1802 113.56C87.9135 111.493 87.7102 109.399 86.6885 107.519C86.477 107.133 86.6701 106.88 86.8747 106.602C87.6953 105.476 88.6999 104.579 89.9968 104.042C94.4072 102.224 98.5804 102.726 102.51 105.372C104.303 106.577 105.732 108.148 106.904 109.958C107.16 110.349 107.329 110.8 107.727 111.084L107.723 111.087ZM109.387 123.407C109.328 120.654 109.073 118.109 108.31 115.643C107.162 111.92 105.286 108.66 102.038 106.377C98.4619 103.866 94.6068 103.323 90.5069 105.006C89.703 105.333 89.0216 105.828 88.4028 106.437C87.9314 106.896 87.7209 107.325 88.0778 108.003C88.4803 108.754 88.6291 109.613 88.7881 110.452C89.2257 112.764 89.4518 115.101 89.5927 117.45C89.8958 122.439 89.9897 127.44 90.4914 132.419C90.7367 134.842 90.9927 137.263 91.5505 139.638C92.1481 142.178 93.9351 143.558 96.5417 143.524C99.7566 143.488 102.43 142.275 104.468 139.751C105.468 138.512 106.27 137.158 106.916 135.708C108.675 131.736 109.316 127.542 109.383 123.41L109.387 123.407Z" fill="#3E75BD"/>
<path d="M57.853 130.489C57.827 132.415 58.2084 134.302 58.4751 136.194C58.8956 139.228 59.4624 142.236 60.3014 145.189C60.4522 145.723 60.5806 146.267 60.8094 146.77C61.2139 147.667 60.9142 148.405 60.4456 149.162C59.6064 150.53 58.4366 151.501 56.9278 151.987C54.1433 152.89 51.4169 151.511 50.343 148.675C49.6152 146.754 49.3107 144.725 48.9931 142.71C48.6756 140.696 48.4258 138.669 48.1469 136.652C48.2273 135.063 47.9333 133.502 47.8284 131.926C47.546 127.797 47.318 123.654 46.5111 119.581C46.2639 118.321 45.9624 117.077 45.2994 115.961C45.1427 115.695 44.9918 115.454 45.1743 115.145C46.3316 113.208 47.734 111.605 50.2003 111.446C51.7272 111.347 52.9348 111.999 53.9579 113.05C55.586 114.722 56.1928 116.84 56.5138 119.069C57.0135 122.535 57.2523 126.031 57.6282 129.513C57.6664 129.844 57.5958 130.205 57.853 130.489ZM50.3179 112.52C48.9171 112.532 46.9588 113.861 46.4214 115.182C46.3063 115.462 46.3898 115.674 46.4977 115.904C47.463 117.946 47.7542 120.149 48.0492 122.35C48.6322 126.673 48.777 131.033 49.1949 135.372C49.5531 139.072 49.9711 142.766 50.8187 146.393C51.0624 147.438 51.3391 148.471 51.9663 149.359C52.9766 150.795 54.3616 151.382 56.0871 151.037C57.5006 150.759 58.5328 149.901 59.3731 148.762C59.8185 148.156 59.9045 147.591 59.6572 146.86C59.0217 145.004 58.5689 143.09 58.1986 141.16C57.1076 135.489 56.5607 129.749 56.0072 124.008C55.8118 121.967 55.6523 119.918 55.2122 117.913C54.8866 116.433 54.355 115.044 53.2996 113.921C52.5204 113.093 51.615 112.47 50.3285 112.519L50.3179 112.52Z" fill="#3E75BD"/>
<path d="M249.719 141.275C249.497 144.172 249.576 147.069 249.742 149.959C249.812 151.242 249.284 151.964 248.273 152.524C245.837 153.883 243.174 153.298 241.433 151.07C239.498 148.591 238.52 145.682 237.607 142.741C237.191 141.4 236.874 140.024 236.496 138.669C236.419 138.4 236.402 138.083 236.013 137.821C236.124 140.831 235.823 143.766 236.293 146.677C236.445 147.616 236.213 148.324 235.457 148.923C233.145 150.77 230.142 150.529 228.211 148.71C226.66 147.248 225.915 145.52 225.757 143.406C225.484 139.728 225.86 136.096 226.17 132.445C226.329 130.532 226.721 128.643 226.74 126.722C227.163 125.633 227.157 124.475 227.303 123.34C227.725 119.992 228.145 116.64 227.963 113.251C227.923 112.481 227.9 111.693 227.593 110.986C227.323 110.365 227.592 110.036 228.025 109.691C228.567 109.265 229.127 108.891 229.77 108.635C231.699 107.86 233.497 108.258 234.881 109.808C236.153 111.231 236.95 112.933 237.673 114.67C238.925 117.668 239.869 120.771 240.777 123.88C240.885 124.245 240.943 124.621 241.241 125.047C241.647 124.058 241.599 123.076 241.712 122.146C241.952 120.199 242.099 118.236 242.023 116.264C241.991 115.447 241.889 114.638 241.627 113.87C241.454 113.363 241.608 113.096 241.968 112.78C244.386 110.648 247.598 110.943 249.629 113.519C251.122 115.409 251.663 117.626 251.727 119.982C251.781 122.04 251.473 124.075 251.222 126.106C250.639 130.769 250.061 135.43 249.706 140.116C249.677 140.494 249.713 140.88 249.717 141.265L249.719 141.275ZM235.493 130.877C235.686 130.959 235.678 131.141 235.72 131.293C236.432 134.065 237.123 136.839 237.858 139.601C238.648 142.576 239.512 145.523 240.948 148.263C241.506 149.329 242.138 150.342 243.053 151.146C244.421 152.355 246.405 152.463 247.925 151.465C248.48 151.1 248.743 150.67 248.647 149.979C248.437 148.453 248.402 146.91 248.422 145.37C248.516 138.818 249.364 132.336 250.166 125.847C250.465 123.389 250.862 120.927 250.514 118.441C250.259 116.618 249.604 114.969 248.279 113.653C246.857 112.242 245.025 112.073 243.363 113.113C242.909 113.395 242.706 113.684 242.827 114.251C243.273 116.323 243.124 118.417 242.955 120.508C242.722 123.406 242.284 126.278 241.846 129.15C241.805 129.419 241.895 129.766 241.441 129.931C240.964 128.334 240.485 126.744 240.017 125.152C238.895 121.299 237.78 117.442 236.092 113.786C235.573 112.658 234.938 111.6 234.16 110.623C232.612 108.678 230.313 109.294 229.016 110.301C228.752 110.503 228.641 110.722 228.725 111.068C229.37 113.693 229.128 116.351 228.86 118.981C228.359 123.91 227.691 128.821 227.139 133.745C226.787 136.892 226.659 140.057 226.819 143.221C226.917 145.183 227.604 146.886 229.201 148.128C230.664 149.271 232.589 149.404 234.127 148.498C234.837 148.078 235.201 147.6 235.126 146.654C234.725 141.617 234.907 136.575 235.269 131.538C235.285 131.31 235.193 131.01 235.497 130.874L235.493 130.877Z" fill="#3E75BD"/>
<path d="M270.991 159.94C270.608 159.955 270.222 159.974 269.841 159.982C268.349 160.016 267.326 159.341 266.747 157.961C266.389 157.096 266.358 157.077 265.479 157.533C264.303 158.151 263.09 158.137 261.878 157.764C259.172 156.933 257.238 155.134 255.839 152.731C254.339 150.159 253.435 147.375 252.987 144.436C252.936 144.102 252.835 143.774 252.756 143.442C252.663 141.951 252.506 140.459 252.483 138.966C252.412 134.267 253.076 129.687 254.872 125.307C255.725 123.237 256.851 121.34 258.413 119.713C262.958 114.965 269.492 116.493 272.606 120.131C274.765 122.654 275.681 125.617 275.671 128.882C275.668 130.287 275.515 131.697 275.088 133.058C274.052 136.36 271.458 137.459 268.366 135.901C268.061 135.75 267.783 135.546 267.478 135.395C266.912 135.116 266.803 134.775 267.093 134.174C267.559 133.213 267.516 132.169 267.177 131.174C266.648 129.612 265.32 129.35 264.27 130.601C263.943 130.989 263.663 131.437 263.464 131.899C261.728 135.902 261.354 140.05 262.288 144.304C262.452 145.052 262.75 145.771 263.197 146.409C263.781 147.245 264.589 147.66 265.594 147.662C266.685 147.661 267.566 146.705 267.481 145.66C267.422 144.938 267.02 144.691 266.344 144.976C266.15 145.059 265.97 145.179 265.794 145.297C264.891 145.893 264.573 145.875 263.949 145.009C262.888 143.526 262.641 141.856 263.116 140.126C263.448 138.907 264.425 138.265 265.599 137.937C268.265 137.192 271.733 138.482 273.328 140.77C273.996 141.724 274.282 142.763 274.12 143.915C273.822 146.031 273.501 148.14 273.22 150.256C272.993 151.994 272.782 153.733 272.844 155.491C272.859 155.915 272.88 156.347 272.965 156.763C273.244 158.135 272.955 158.813 271.779 159.506C271.525 159.655 271.196 159.662 271.004 159.925L270.991 159.94ZM267.435 154.228C267.525 155.356 267.497 156.239 267.661 157.11C268.067 159.268 270.423 159.263 271.594 158.327C271.895 158.086 272.093 157.79 271.998 157.328C271.472 154.855 271.879 152.392 272.168 149.935C272.383 148.112 272.703 146.303 272.982 144.488C273.154 143.358 273.105 142.289 272.38 141.311C271.048 139.507 268.142 138.417 265.973 138.967C265.099 139.185 264.352 139.637 264.108 140.547C263.778 141.794 263.985 143.005 264.632 144.131C264.822 144.462 265.068 144.478 265.372 144.283C265.548 144.165 265.737 144.057 265.934 143.978C267.362 143.401 268.543 144.183 268.586 145.721C268.624 147.244 267.373 148.636 265.83 148.729C264.297 148.821 263.088 148.217 262.229 146.939C261.724 146.184 261.406 145.343 261.209 144.466C260.262 140.168 260.654 135.979 262.27 131.895C262.555 131.179 262.915 130.493 263.429 129.91C264.108 129.136 264.92 128.585 265.997 128.765C267.174 128.963 267.85 129.769 268.204 130.854C268.514 131.8 268.64 132.786 268.344 133.756C268.139 134.428 268.395 134.76 268.98 135.043C271.255 136.146 273.205 135.427 273.946 132.995C275.069 129.28 274.833 125.646 272.806 122.246C269.944 117.45 262.859 115.756 258.446 121.304C257.128 122.96 256.15 124.801 255.453 126.791C253.384 132.694 253.05 138.728 254.159 144.861C254.641 147.529 255.497 150.07 256.928 152.392C258.076 154.26 259.578 155.727 261.653 156.553C263.538 157.3 264.891 157.011 266.288 155.535C266.625 155.176 266.94 154.797 267.428 154.244L267.435 154.228Z" fill="#3E75BD"/>
<path d="M180.978 110.458C180.952 110.84 180.905 111.225 180.913 111.607C180.983 114.341 180.769 117.073 180.63 119.794C180.48 122.7 180.558 125.597 180.498 128.498C180.49 128.797 180.517 129.096 180.512 129.399C180.505 129.884 180.741 130.078 181.217 130.079C182.485 130.079 183.664 129.793 184.732 129.087C185.835 128.357 186.092 128.388 187.044 129.254C187.829 129.973 188.292 130.887 188.6 131.864C189.189 133.747 189.459 135.642 189.111 137.653C188.667 140.223 187.141 141.643 184.768 142.294C182.808 142.832 180.778 142.784 178.79 142.561C177.693 142.436 176.592 142.455 175.49 142.223C172.419 141.559 170.89 139.206 170.564 136.424C170.139 132.805 170.167 129.17 170.292 125.548C170.396 122.534 170.49 119.505 170.889 116.501C170.893 116.457 170.904 116.414 170.901 116.376C170.809 113.769 171.27 111.181 171.095 108.573C171.021 106.958 170.942 105.334 170.342 103.805C170.18 103.39 170.227 103.105 170.52 102.777C172.982 100.003 176.405 99.8446 178.754 102.757C180.176 104.521 180.691 106.608 180.869 108.808C180.913 109.358 180.94 109.909 180.977 110.465L180.978 110.458ZM179.563 119.578C179.658 116.248 179.822 112.916 179.82 109.583C179.821 107.193 179.304 104.902 177.589 103.072C175.954 101.323 173.784 101.25 172.009 102.832C171.6 103.195 171.316 103.529 171.593 104.151C171.796 104.608 171.84 105.141 171.908 105.65C172.462 109.789 172.097 113.924 171.833 118.06C171.524 122.879 171.18 127.698 171.379 132.53C171.442 134.148 171.503 135.778 171.882 137.368C172.382 139.442 173.634 140.762 175.769 141.111C177.92 141.467 180.097 141.6 182.277 141.553C182.953 141.538 183.642 141.415 184.299 141.254C186.239 140.789 187.613 139.699 187.991 137.638C188.386 135.477 188.093 133.387 187.207 131.383C186.983 130.87 186.67 130.414 186.254 130.03C186.008 129.803 185.786 129.73 185.467 129.953C183.959 131.02 182.234 131.205 180.456 131.14C179.417 131.098 179.416 131.105 179.369 130.081C179.211 126.575 179.474 123.075 179.563 119.578Z" fill="#3E75BD"/>
<path d="M211.707 119.835C211.323 121.09 211.126 122.395 210.662 123.636C209.113 127.773 206.277 130.684 202.262 132.472C202.03 132.576 201.793 132.682 201.548 132.76C200.965 132.951 200.813 133.345 200.829 133.938C200.875 135.943 201.023 137.941 201.329 139.922C201.621 141.79 201.361 142.459 199.776 143.457C197.039 145.184 193.577 144.313 191.883 141.524C190.984 140.046 190.746 138.405 190.631 136.747C190.403 133.502 190.666 130.253 190.834 127.019C191.033 123.193 191.591 119.392 191.765 115.555C191.8 114.708 192.024 113.871 191.925 113.007C192.042 110.448 192.21 107.876 191.378 105.388C191.205 104.863 191.478 104.59 191.802 104.299C193.06 103.16 194.582 102.659 196.234 102.519C197.836 102.384 199.393 102.639 200.886 103.203C206.331 105.264 209.956 109.002 211.312 114.757C211.616 116.048 211.727 117.373 211.637 118.704C211.612 119.079 211.498 119.47 211.703 119.838L211.707 119.835ZM191.736 133.133C191.633 134.596 191.772 136.213 191.872 137.833C191.943 138.958 192.242 140.023 192.853 140.98C194.471 143.535 197.689 144.025 199.799 142.056C200.204 141.678 200.391 141.3 200.295 140.71C199.913 138.26 199.778 135.783 199.763 133.304C199.757 132.146 199.653 132.266 200.737 131.86C206.892 129.532 210.171 125.048 210.544 118.5C211.024 110.175 203.972 104.19 197.675 103.589C196.153 103.444 194.694 103.708 193.363 104.499C192.491 105.015 192.481 105.034 192.701 106.012C192.853 106.681 192.948 107.354 192.996 108.036C193.278 111.719 192.976 115.382 192.634 119.038C192.205 123.677 191.786 128.313 191.732 133.136L191.736 133.133Z" fill="#3E75BD"/>
<path d="M223.355 125.116C223.215 125.226 223.12 125.375 223.126 125.552C223.181 126.964 222.974 128.371 222.811 129.758C222.52 132.228 222.824 134.71 222.459 137.166C222.256 138.529 222.674 139.881 222.684 141.247C222.695 142.185 222.675 143.121 222.918 144.048C223.132 144.849 222.847 145.489 222.233 146.106C220.394 147.957 216.96 148.058 214.972 146.332C213.442 145.002 212.658 143.361 212.394 141.356C211.938 137.894 212.357 134.466 212.551 131.026C212.668 128.936 212.954 126.87 213.107 124.79C213.213 123.348 213.56 121.931 213.596 120.48C214.048 116.923 214.459 113.366 213.999 109.772C213.975 109.56 213.939 109.35 213.893 109.142C213.648 108.104 213.96 107.285 214.828 106.686C217.026 105.171 219.457 105.39 221.33 107.278C222.769 108.731 223.452 110.537 223.782 112.519C224.143 114.697 223.857 116.864 223.702 119.033C223.579 120.821 223.382 122.603 223.208 124.385C223.181 124.657 223.226 124.889 223.348 125.121L223.355 125.116ZM213.431 137.091C213.442 138.415 213.373 139.743 213.479 141.061C213.632 143.025 214.43 144.686 216.148 145.791C217.665 146.767 219.533 146.727 220.969 145.717C221.568 145.298 221.859 144.842 221.765 144.01C221.088 138.202 221.51 132.395 221.954 126.595C222.237 122.887 222.71 119.192 222.866 115.473C222.907 114.482 222.859 113.499 222.699 112.532C222.422 110.811 221.781 109.24 220.521 107.985C219.002 106.477 216.981 106.365 215.301 107.664C214.932 107.951 214.742 108.207 214.887 108.734C215.194 109.852 215.28 111.007 215.286 112.165C215.304 115.035 215.035 117.888 214.714 120.736C214.11 126.173 213.382 131.601 213.432 137.084L213.431 137.091Z" fill="#3E75BD"/>
<path d="M30.0714 135.098C30.9346 130.409 31.9692 125.746 32.6019 121.012C32.7049 120.253 32.7578 119.465 32.6768 118.711C32.5994 117.996 32.8816 117.552 33.4022 117.206C36.3232 115.256 38.992 115.613 40.6438 118.872C41.3504 120.268 41.6606 121.777 41.8537 123.303C42.3588 127.247 42.7693 131.198 43.2889 135.137C43.9585 140.222 44.7064 145.293 46.4052 150.162C46.6249 150.795 46.5669 151.299 46.2122 151.841C45.585 152.791 44.8043 153.554 43.7761 154.056C41.745 155.055 39.6198 154.417 38.4657 152.465C37.7555 151.266 37.4997 149.918 37.2253 148.578C36.6191 145.598 36.4015 142.568 36.152 139.543C36.0109 137.84 35.9151 136.134 35.7953 134.428C35.7812 134.214 35.767 134.001 35.7249 133.79C35.6604 133.471 35.4125 133.427 35.1379 133.438C34.8632 133.448 34.6134 133.493 34.5889 133.828C34.5427 134.382 34.5205 134.938 34.481 135.494C34.2347 139.077 33.9805 142.665 34.3521 146.25C34.4426 147.126 34.1272 147.582 33.4293 147.994C31.5345 149.12 30.2256 148.885 28.904 147.08C27.9858 145.827 27.4065 144.394 26.9146 142.936C26.4358 141.522 26.0232 140.085 25.5881 138.658C25.477 138.289 25.3912 137.915 25.2762 137.549C25.1628 137.194 25.1137 136.788 24.5407 136.884C23.9666 136.986 24.0351 137.361 24.0945 137.748C24.2778 139.017 24.4359 140.292 24.6551 141.553C25.476 146.309 26.293 151.067 28.023 155.604C28.1904 156.044 28.1694 156.417 27.9435 156.816C27.1567 158.2 26.0946 159.266 24.5475 159.773C22.8904 160.316 21.2573 159.786 20.2445 158.363C19.7927 157.734 19.4954 157.033 19.2717 156.285C18.2397 152.88 17.6912 149.378 17.1852 145.869C16.477 140.964 16.1787 136.007 15.2802 131.124C14.9244 129.189 14.5473 127.257 13.615 125.497C13.4646 125.215 13.3736 124.967 13.5549 124.664C14.3322 123.393 15.2849 122.321 16.7457 121.833C17.7694 121.493 18.7703 121.614 19.7158 122.127C20.86 122.747 21.8039 123.601 22.6662 124.565C24.5906 126.711 26.0433 129.182 27.5511 131.614C28.2905 132.804 29.0456 133.984 29.7995 135.171C29.8937 135.146 29.9851 135.117 30.0793 135.093L30.0714 135.098Z" fill="#F8F7FF"/>
<path d="M132.929 118.905C134.366 118.71 135.63 118.536 136.907 118.575C137.395 118.592 137.578 118.358 137.574 117.874C137.573 116.548 137.634 115.226 137.627 113.898C137.614 111.119 137.698 108.336 137.256 105.581C137.159 104.991 137.121 104.366 136.88 103.837C136.523 103.041 136.842 102.566 137.387 102.061C139.119 100.45 140.983 100.531 142.513 102.331C143.755 103.787 144.256 105.544 144.45 107.398C144.78 110.555 144.666 113.722 144.659 116.885C144.645 123.258 144.66 129.622 145.671 135.942C145.696 136.112 145.693 136.291 145.748 136.446C146.175 137.626 145.958 138.6 144.916 139.376C143.795 140.207 142.612 140.689 141.213 140.159C139.841 139.64 138.985 138.618 138.498 137.268C137.926 135.678 137.831 134.007 137.71 132.349C137.529 129.875 137.421 127.397 137.42 124.92C137.422 123.992 137.396 123.963 136.522 124.023C135.585 124.085 134.652 124.227 133.715 124.29C133.134 124.332 133.016 124.65 133.052 125.147C133.176 126.851 133.257 128.561 133.42 130.261C133.661 132.728 133.979 135.188 134.572 137.597C134.684 138.058 134.584 138.41 134.304 138.782C132.16 141.633 128.226 141.279 126.611 138.089C126.02 136.918 125.834 135.645 125.688 134.379C125.233 130.383 125.079 126.37 125.113 122.349C125.14 118.931 125.308 115.514 125.181 112.093C125.077 109.359 125.032 106.62 124.132 103.991C123.982 103.55 124.15 103.269 124.422 102.961C126.302 100.824 128.877 100.83 130.719 103.01C131.985 104.508 132.474 106.315 132.642 108.216C132.893 111.117 132.901 114.023 132.912 116.933C132.914 117.565 132.92 118.195 132.927 118.918L132.929 118.905Z" fill="#F8F7FF"/>
<path d="M70.2465 128.838C70.8446 134.072 71.5661 139.274 73.0517 144.333C73.2108 144.879 73.1327 145.322 72.8106 145.776C72.2817 146.522 71.6566 147.147 70.8609 147.604C68.6214 148.883 66.1612 148.186 64.9835 145.899C64.089 144.159 63.892 142.224 63.5879 140.33C62.7363 135.044 62.52 129.7 62.1851 124.364C61.9954 121.333 61.7632 118.307 61.1251 115.332C60.9448 114.495 60.7669 113.645 60.3565 112.899C60.0449 112.336 60.1841 111.939 60.5578 111.525C60.7856 111.272 60.9846 110.986 61.2384 110.762C63.544 108.738 64.7512 109.196 66.3996 110.637C67.4081 111.517 68.2216 112.562 68.9826 113.65C70.626 115.998 72.0444 118.487 73.4206 120.999C74.1177 122.273 74.8255 123.544 75.5503 124.798C75.685 125.033 75.7342 125.38 76.2058 125.467C76.1294 123.671 76.0963 121.904 75.9792 120.142C75.7958 117.33 75.6349 114.507 74.9432 111.757C74.82 111.262 74.7251 110.724 74.4636 110.308C74.0275 109.609 74.27 109.117 74.7362 108.608C75.1725 108.133 75.6337 107.693 76.1933 107.36C77.6155 106.523 79.0711 106.632 80.3672 107.662C81.4786 108.546 82.1364 109.729 82.5849 111.042C83.1019 112.553 83.2363 114.137 83.3625 115.71C83.6808 119.714 83.9179 123.728 84.2496 127.734C84.6449 132.553 85.2144 137.344 86.5629 142.006C86.7208 142.559 86.6624 142.987 86.3175 143.434C85.9195 143.948 85.4855 144.41 84.9547 144.775C83.1702 146 81.7217 145.969 80.0316 144.627C78.847 143.689 77.9382 142.499 77.0936 141.259C75.4294 138.813 74.1553 136.153 72.8244 133.521C72.1694 132.224 71.5369 130.917 70.87 129.629C70.7235 129.344 70.672 128.951 70.2429 128.858L70.2465 128.838Z" fill="#F8F7FF"/>
<path d="M158.54 110.724C158.39 113.471 158.373 116.148 158.388 118.914C159.213 118.8 159.952 118.665 160.694 118.61C163.456 118.403 164.674 119.793 164.149 122.532C164.083 122.866 164.009 123.205 163.891 123.523C163.555 124.427 163.484 124.459 162.515 124.157C162.02 124.004 161.511 123.938 160.996 123.94C158.573 123.951 158.362 124.186 158.381 126.58C158.399 128.762 158.603 130.933 158.783 133.102C158.812 133.48 158.837 133.868 159.079 134.315C161.236 133.681 163.309 132.894 164.985 131.304C165.42 131.346 165.518 131.712 165.668 131.995C166.497 133.54 166.862 135.186 166.701 136.936C166.533 138.709 165.639 139.746 163.922 140.179C162.794 140.463 161.64 140.542 160.486 140.528C158.945 140.508 157.411 140.455 155.874 140.397C153.513 140.312 151.651 138.808 151.063 136.19C150.732 134.726 150.609 133.233 150.538 131.739C150.264 126.054 150.511 120.375 150.755 114.698C150.899 111.28 150.968 107.863 150.34 104.474C150.311 104.307 150.286 104.137 150.242 103.974C149.881 102.559 149.886 102.55 151.155 101.762C152.411 100.983 153.806 100.594 155.253 100.379C158.396 99.9124 161.471 100.138 164.42 101.415C165.052 101.689 165.642 102.022 166.187 102.439C167.399 103.375 167.903 104.649 167.924 106.131C167.948 107.952 167.591 109.698 166.721 111.317C166.561 111.616 166.353 111.897 166.126 112.144C165.483 112.852 165.35 112.863 164.561 112.306C162.771 111.04 160.746 110.713 158.536 110.727L158.54 110.724Z" fill="#F8F7FF"/>
<path d="M109.387 123.407C109.318 127.536 108.679 131.733 106.921 135.705C106.277 137.159 105.475 138.513 104.473 139.749C102.434 142.272 99.7582 143.481 96.546 143.522C93.9395 143.555 92.1497 142.172 91.5548 139.635C90.997 137.26 90.7383 134.835 90.4957 132.416C89.9968 127.441 89.9001 122.436 89.597 117.448C89.4522 115.101 89.2328 112.766 88.7924 110.45C88.6334 109.61 88.4846 108.751 88.0821 108C87.7213 107.325 87.9357 106.893 88.4071 106.434C89.0247 105.832 89.7061 105.337 90.5112 105.003C94.6111 103.32 98.4635 103.859 102.043 106.374C105.29 108.657 107.166 111.918 108.315 115.64C109.073 118.109 109.328 120.654 109.391 123.404L109.387 123.407ZM96.8684 111.127C96.4512 114.525 98.5029 134.421 99.4902 136.613C100.441 135.337 100.934 133.894 101.252 132.386C102.071 128.497 102.179 124.582 101.626 120.654C101.345 118.667 100.902 116.699 100.052 114.864C99.3507 113.341 98.3647 112.041 96.8684 111.127Z" fill="#F8F7FF"/>
<path d="M50.3145 112.516C51.601 112.467 52.5064 113.09 53.2856 113.919C54.3449 115.038 54.8754 116.434 55.1982 117.911C55.641 119.92 55.7978 121.964 55.9932 124.005C56.5467 129.747 57.0935 135.487 58.1845 141.157C58.5549 143.088 59.0076 145.002 59.6432 146.858C59.8932 147.593 59.8072 148.158 59.3591 148.759C58.5187 149.899 57.4826 150.759 56.0731 151.035C54.3515 151.376 52.9626 150.793 51.9522 149.357C51.3263 148.462 51.0456 147.432 50.8047 146.391C49.9571 142.763 49.5351 139.073 49.1809 135.37C48.763 131.031 48.6221 126.668 48.0352 122.347C47.7401 120.147 47.4463 117.94 46.4837 115.901C46.3758 115.671 46.2923 115.46 46.4074 115.18C46.9487 113.856 48.9003 112.526 50.3038 112.518L50.3145 112.516Z" fill="#F8F7FF"/>
<path d="M235.489 130.879C235.186 131.016 235.278 131.315 235.262 131.544C234.904 136.578 234.721 141.619 235.119 146.66C235.196 147.609 234.832 148.087 234.119 148.503C232.581 149.409 230.661 149.274 229.194 148.134C227.601 146.889 226.91 145.188 226.811 143.227C226.652 140.062 226.776 136.9 227.132 133.751C227.684 128.827 228.351 123.916 228.853 118.986C229.121 116.357 229.362 113.699 228.718 111.074C228.634 110.728 228.744 110.516 229.009 110.307C230.306 109.3 232.6 108.686 234.153 110.629C234.93 111.605 235.565 112.664 236.084 113.792C237.773 117.447 238.887 121.305 240.009 125.157C240.474 126.752 240.956 128.34 241.434 129.937C241.884 129.775 241.794 129.427 241.838 129.155C242.277 126.283 242.715 123.411 242.947 120.513C243.112 118.425 243.261 116.331 242.82 114.257C242.699 113.69 242.902 113.401 243.356 113.118C245.022 112.076 246.85 112.247 248.272 113.659C249.597 114.974 250.252 116.623 250.507 118.447C250.855 120.933 250.458 123.394 250.158 125.852C249.361 132.339 248.509 138.823 248.415 145.376C248.395 146.916 248.429 148.459 248.64 149.985C248.735 150.675 248.473 151.105 247.918 151.47C246.398 152.469 244.418 152.357 243.046 151.151C242.131 150.347 241.501 149.338 240.941 148.269C239.502 145.524 238.638 142.577 237.85 139.606C237.115 136.845 236.422 134.066 235.712 131.299C235.674 131.143 235.682 130.962 235.485 130.882L235.489 130.879Z" fill="#F8F7FF"/>
<path d="M267.432 154.224C266.944 154.777 266.628 155.156 266.292 155.514C264.895 156.991 263.541 157.28 261.657 156.533C259.584 155.711 258.08 154.24 256.931 152.372C255.501 150.05 254.644 147.509 254.163 144.84C253.056 138.711 253.387 132.674 255.456 126.771C256.153 124.781 257.134 122.944 258.449 121.284C262.86 115.732 269.947 117.43 272.809 122.225C274.837 125.626 275.072 129.26 273.949 132.975C273.216 135.408 271.261 136.129 268.984 135.022C268.398 134.739 268.143 134.408 268.348 133.736C268.643 132.766 268.517 131.78 268.208 130.834C267.854 129.749 267.178 128.942 266 128.745C264.921 128.561 264.108 129.112 263.432 129.89C262.921 130.477 262.559 131.159 262.273 131.875C260.654 135.954 260.259 140.147 261.212 144.446C261.406 145.326 261.723 146.166 262.233 146.919C263.094 148.201 264.303 148.805 265.833 148.709C267.376 148.616 268.627 147.224 268.589 145.701C268.546 144.163 267.361 143.384 265.937 143.958C265.74 144.037 265.552 144.145 265.375 144.263C265.07 144.464 264.826 144.442 264.635 144.111C263.984 142.988 263.781 141.774 264.112 140.527C264.352 139.619 265.101 139.172 265.976 138.946C268.144 138.404 271.047 139.49 272.383 141.291C273.106 142.265 273.158 143.337 272.986 144.468C272.706 146.283 272.387 148.092 272.172 149.915C271.883 152.372 271.475 154.835 272.002 157.307C272.1 157.767 271.903 158.064 271.597 158.307C270.427 159.243 268.074 159.245 267.664 157.09C267.501 156.218 267.529 155.336 267.438 154.208L267.432 154.224Z" fill="#F8F7FF"/>
<path d="M179.564 119.578C179.473 123.081 179.214 126.579 179.369 130.081C179.413 131.1 179.417 131.098 180.456 131.14C182.237 131.209 183.959 131.02 185.467 129.953C185.782 129.732 186.008 129.803 186.254 130.03C186.67 130.414 186.983 130.87 187.207 131.383C188.093 133.387 188.387 135.477 187.991 137.638C187.613 139.699 186.239 140.789 184.299 141.254C183.635 141.413 182.953 141.538 182.277 141.553C180.097 141.6 177.92 141.467 175.769 141.111C173.632 140.758 172.38 139.438 171.882 137.368C171.499 135.781 171.443 134.147 171.379 132.53C171.18 127.698 171.524 122.878 171.833 118.06C172.098 113.924 172.466 109.786 171.909 105.65C171.843 105.144 171.796 104.608 171.593 104.151C171.317 103.528 171.6 103.195 172.009 102.832C173.786 101.243 175.954 101.322 177.59 103.072C179.3 104.905 179.821 107.193 179.82 109.583C179.819 112.912 179.655 116.244 179.564 119.578Z" fill="#F8F7FF"/>
<path d="M191.732 133.136C191.786 128.313 192.205 123.677 192.634 119.038C192.973 115.378 193.275 111.715 192.996 108.036C192.945 107.35 192.846 106.68 192.701 106.012C192.48 105.034 192.491 105.015 193.362 104.499C194.694 103.708 196.153 103.444 197.674 103.589C203.971 104.191 211.023 110.175 210.544 118.5C210.167 125.051 206.89 129.539 200.737 131.86C199.649 132.269 199.753 132.149 199.763 133.305C199.78 135.787 199.913 138.26 200.295 140.71C200.387 141.303 200.204 141.678 199.799 142.056C197.689 144.025 194.474 143.533 192.853 140.98C192.248 140.024 191.943 138.958 191.872 137.833C191.772 136.213 191.633 134.596 191.736 133.133L191.732 133.136ZM199.929 125.369C201.343 125.025 202.186 124.225 202.839 123.186C203.702 121.819 204.137 120.3 204.258 118.712C204.429 116.397 204.08 114.188 202.545 112.321C202.071 111.743 201.551 111.202 200.735 110.916C200.367 115.752 200.085 120.476 199.925 125.372L199.929 125.369Z" fill="#F8F7FF"/>
<path d="M213.428 137.087C213.375 131.6 214.106 126.175 214.711 120.739C215.027 117.894 215.303 115.041 215.282 112.168C215.276 111.009 215.19 109.855 214.884 108.737C214.738 108.21 214.929 107.954 215.297 107.667C216.977 106.368 219.003 106.477 220.518 107.988C221.778 109.243 222.419 110.814 222.695 112.534C222.851 113.505 222.903 114.485 222.862 115.476C222.706 119.195 222.237 122.887 221.951 126.598C221.506 132.398 221.084 138.205 221.761 144.013C221.859 144.842 221.564 145.301 220.965 145.72C219.523 146.729 217.661 146.77 216.145 145.794C214.426 144.689 213.628 143.028 213.475 141.063C213.369 139.746 213.438 138.418 213.427 137.094L213.428 137.087Z" fill="#F8F7FF"/>
<path d="M96.8639 111.13C98.3602 112.044 99.3395 113.343 100.048 114.866C100.9 116.706 101.341 118.67 101.622 120.657C102.174 124.585 102.066 128.499 101.248 132.389C100.93 133.897 100.439 135.344 99.4857 136.616C98.5023 134.421 96.4506 114.524 96.8639 111.13ZM97.993 113.809C98.4999 120.381 98.7506 126.722 99.7891 133.022C101.624 128.621 101.122 117.325 97.993 113.809Z" fill="#3E75BD"/>
<path d="M199.933 125.367C200.097 120.474 200.372 115.75 200.743 110.911C201.557 111.193 202.079 111.738 202.554 112.315C204.089 114.182 204.441 116.389 204.267 118.707C204.145 120.295 203.711 121.814 202.848 123.181C202.194 124.219 201.352 125.02 199.937 125.364L199.933 125.367ZM203.032 116.448C203.092 115.191 202.583 114.161 201.726 112.936C201.535 114.173 201.423 115.079 201.515 116.007C201.365 118.436 201.216 120.865 201.063 123.408C201.7 123.109 201.935 122.657 202.163 122.21C202.684 121.176 202.982 120.076 203.149 118.931C203.273 118.093 203.438 117.262 203.039 116.449L203.032 116.448Z" fill="#3E75BD"/>
</g>
<defs>
<filter id="filter0_d_343_558" x="8.18506" y="98.9161" width="271.486" height="70.1298" filterUnits="userSpaceOnUse" color-interpolation-filters="sRGB">
<feFlood flood-opacity="0" result="BackgroundImageFix"/>
<feColorMatrix in="SourceAlpha" type="matrix" values="0 0 0 0 0 0 0 0 0 0 0 0 0 0 0 0 0 0 127 0" result="hardAlpha"/>
<feOffset dy="4"/>
<feGaussianBlur stdDeviation="2"/>
<feComposite in2="hardAlpha" operator="out"/>
<feColorMatrix type="matrix" values="0 0 0 0 0 0 0 0 0 0 0 0 0 0 0 0 0 0 0.17 0"/>
<feBlend mode="normal" in2="BackgroundImageFix" result="effect1_dropShadow_343_558"/>
<feBlend mode="normal" in="SourceGraphic" in2="effect1_dropShadow_343_558" result="shape"/>
</filter>
</defs>
</svg>
